<svg xmlns="http://www.w3.org/2000/svg" version="1.1" xmlns:xlink="http://www.w3.org/1999/xlink" xmlns:svgjs="http://svgjs.dev/svgjs" width="1500" height="1034" viewBox="0 0 1500 1034"><g transform="matrix(1,0,0,1,-0.984985787718756,0.41862348178131015)"><svg viewBox="0 0 358 247" data-background-color="#ffffff" preserveAspectRatio="xMidYMid meet" height="1034" width="1500" xmlns="http://www.w3.org/2000/svg" xmlns:xlink="http://www.w3.org/1999/xlink"><g id="tight-bounds" transform="matrix(1,0,0,1,0.2350832746688809,-0.09999999999999432)"><svg viewBox="0 0 357.52983345066224 247.2" height="247.2" width="357.52983345066224"><g><svg viewBox="0 0 397.4976 274.8341467665514" height="247.2" width="357.52983345066224"><g><rect width="397.4976" height="6.502499334848565" x="0" y="152.95207280258805" fill="#551e19" opacity="1" stroke-width="0" stroke="transparent" fill-opacity="1" class="rect-qz-0" data-fill-palette-color="secondary" rx="1%" id="qz-0" data-palette-color="#551e19"></rect></g><g transform="matrix(1,0,0,1,0.9887999999999693,176.47682170510302)"><svg viewBox="0 0 395.52000000000004 98.35732506144838" height="98.35732506144838" width="395.52000000000004"><g id="textblocktransform"><svg viewBox="0 0 395.52000000000004 98.35732506144838" height="98.35732506144838" width="395.52000000000004" id="textblock"><g><svg viewBox="0 0 395.52000000000004 72.10495589414595" height="72.10495589414595" width="395.52000000000004"><g transform="matrix(1,0,0,1,0,0)"><svg width="395.52000000000004" viewBox="4 -34.1 187.04 34.1" height="72.10495589414595" data-palette-color="#c56e33"><path d="M20.55-4.2L33.05-34.1 37.25-34.1 37.25 0 33.55 0 33.55-27.25 22.15 0 18.65 0 7.75-27.15 7.75 0 4 0 4-34.1 8.6-34.1 20.55-4.2ZM56.45 0L52.75 0 52.75-31 42-31 42-34.1 67.2-34.1 67.2-31 56.45-31 56.45 0ZM75.7 0L71.95 0 71.95-34.1 75.7-34.1 75.7-19.35 93.7-19.35 93.7-34.1 97.45-34.1 97.45 0 93.7 0 93.7-16.25 75.7-16.25 75.7 0ZM124.64 0L105.39 0 105.39-34.1 124.49-34.1 124.49-30.95 109.14-30.95 109.14-19.05 121.14-19.05 121.14-16 109.14-16 109.14-3.1 124.64-3.1 124.64 0ZM147.14-4.2L159.64-34.1 163.84-34.1 163.84 0 160.14 0 160.14-27.25 148.74 0 145.24 0 134.34-27.15 134.34 0 130.59 0 130.59-34.1 135.19-34.1 147.14-4.2ZM191.04 0L171.79 0 171.79-34.1 190.89-34.1 190.89-30.95 175.54-30.95 175.54-19.05 187.54-19.05 187.54-16 175.54-16 175.54-3.1 191.04-3.1 191.04 0Z" opacity="1" transform="matrix(1,0,0,1,0,0)" fill="#c56e33" class="wordmark-text-0" data-fill-palette-color="primary" id="text-0"></path></svg></g></svg></g><g transform="matrix(1,0,0,1,75.54432000000001,89.12720546181234)"><svg viewBox="0 0 244.43136 9.230119599636033" height="9.230119599636033" width="244.43136"><g transform="matrix(1,0,0,1,0,0)"><svg width="244.43136" viewBox="2.5 -18.05 109.89 4.15" height="9.230119599636033" data-palette-color="#551e19"><path d="M2.5-13.9L2.5-18.05 16.65-18.05 16.65-13.9 2.5-13.9ZM21.65-13.9L21.65-18.05 35.8-18.05 35.8-13.9 21.65-13.9ZM40.8-13.9L40.8-18.05 54.95-18.05 54.95-13.9 40.8-13.9ZM59.94-13.9L59.94-18.05 74.09-18.05 74.09-13.9 59.94-13.9ZM79.09-13.9L79.09-18.05 93.24-18.05 93.24-13.9 79.09-13.9ZM98.24-13.9L98.24-18.05 112.39-18.05 112.39-13.9 98.24-13.9Z" opacity="1" transform="matrix(1,0,0,1,0,0)" fill="#551e19" class="slogan-text-1" data-fill-palette-color="secondary" id="text-1"></path></svg></g></svg></g></svg></g></svg></g><g transform="matrix(1,0,0,1,122.77822416788648,0)"><svg viewBox="0 0 151.94115166422702 135.92982323492166" height="135.92982323492166" width="151.94115166422702"><g><svg xmlns="http://www.w3.org/2000/svg" xmlns:xlink="http://www.w3.org/1999/xlink" version="1.1" x="8" y="0" viewBox="0 0.001000000000000112 24 23.997999999999998" style="enable-background:new 0 0 24 24;" xml:space="preserve" height="135.92982323492166" width="135.94115166422702" class="icon-icon-0" data-fill-palette-color="accent" id="icon-0"><g fill="#551e19" data-fill-palette-color="accent"><path d="M24 1.701c0-0.937-0.764-1.7-1.702-1.7-0.687 0-1.302 0.409-1.568 1.043L19.2 4.699c-0.456-0.429-1.051-0.7-1.7-0.7h-15c-1.378 0-2.5 1.122-2.5 2.5v15c0 1.378 1.122 2.5 2.5 2.5h15c1.378 0 2.5-1.122 2.5-2.5V10.554l3.84-8.101C23.945 2.23 24 1.982 24 1.701zM19 21.499c0 0.827-0.673 1.5-1.5 1.5h-15c-0.827 0-1.5-0.673-1.5-1.5v-15c0-0.827 0.673-1.5 1.5-1.5h15c0.527 0 0.999 0.286 1.269 0.73L17 9.957V7.499c0-0.276-0.224-0.5-0.5-0.5h-13c-0.276 0-0.5 0.224-0.5 0.5v4c0 0.276 0.224 0.5 0.5 0.5h12.645l-0.419 1H11.5c-0.276 0-0.5 0.224-0.5 0.5v6c0 0.013 0.006 0.024 0.007 0.037-0.411 0.365-0.663 0.487-0.681 0.494-0.158 0.059-0.276 0.192-0.314 0.357-0.038 0.168 0.012 0.344 0.134 0.466 0.724 0.724 1.723 1 2.7 1 1.249 0 2.46-0.452 3.006-1 0.786-0.786 1.362-2.344 0.927-3.505L19 12.664V21.499zM12.645 16.647c-0.311 0.311-0.504 0.634-0.645 0.947V14h3.308l-0.767 1.832C13.873 15.82 13.202 16.089 12.645 16.647zM11.978 20.001c0.418-0.419 0.566-0.901 0.708-1.367 0.138-0.454 0.269-0.884 0.667-1.282 0.707-0.707 1.586-0.707 2.293 0 0.633 0.633 0.15 2.143-0.5 2.793-0.542 0.541-2.469 1.063-3.762 0.387C11.556 20.398 11.754 20.225 11.978 20.001zM16.104 16.438c-0.185-0.15-0.376-0.278-0.576-0.372l1.346-3.217 0.756 0.371L16.104 16.438zM16 7.999v3H4v-3C4 7.999 16 7.999 16 7.999zM22.935 2.027l-4.878 10.29-0.797-0.391 2.535-6.058 0 0 1.857-4.438c0.109-0.261 0.363-0.429 0.647-0.429 0.386 0 0.7 0.314 0.7 0.734C22.999 1.835 22.977 1.938 22.935 2.027z" fill="#551e19" data-fill-palette-color="accent"></path><path d="M8.5 12.999h-5c-0.276 0-0.5 0.224-0.5 0.5v7c0 0.276 0.224 0.5 0.5 0.5h5c0.276 0 0.5-0.224 0.5-0.5v-7C9 13.223 8.776 12.999 8.5 12.999zM8 19.999H4v-6h4V19.999z" fill="#551e19" data-fill-palette-color="accent"></path></g></svg></g></svg></g><g><rect width="34.506142704141126" height="6.502499334848565" y="128.42732390007308" x="274.7193758321135" fill="#551e19" data-fill-palette-color="secondary"></rect><rect width="34.506142704141126" height="6.502499334848565" y="128.42732390007308" x="88.27208146374535" fill="#551e19" data-fill-palette-color="secondary"></rect></g></svg></g><defs></defs></svg><rect width="357.52983345066224" height="247.2" fill="none" stroke="none" visibility="hidden"></rect></g></svg></g></svg>